<svg version="1.1" id="Layer_1" xmlns="http://www.w3.org/2000/svg" xmlns:xlink="http://www.w3.org/1999/xlink" x="0px" y="0px"
	 width="20px" height="20px" viewBox="15 15 20 20" enable-background="new 15 15 20 20" xml:space="preserve">
<g>
	<path d="M24.585,17.713l-0.134,0.014c-2.351,0.246-4.124,2.218-4.124,4.586c0,0.053-0.015,5.319-1.31,7.424l-0.449,0.728h12.863
		l-0.448-0.727c-1.293-2.105-1.309-7.373-1.309-7.425c0-2.302-1.72-4.268-4.001-4.571l-0.131-0.018v-1.096
		c0-0.264-0.215-0.479-0.48-0.479c-0.264,0-0.478,0.215-0.478,0.479V17.713z M24.938,18.658h0.124c2.016,0,3.655,1.639,3.655,3.654
		c0,0.179,0.011,4.402,1.001,6.992l0.078,0.204h-9.593l0.078-0.204c0.961-2.506,1.001-6.541,1.003-6.993
		C21.285,20.297,22.924,18.658,24.938,18.658z"/>
	<path d="M26.564,31.328c-0.264,0-0.479,0.215-0.479,0.479c0,0.599-0.487,1.086-1.086,1.086c-0.599,0-1.086-0.487-1.086-1.086
		c0-0.264-0.215-0.479-0.479-0.479s-0.479,0.215-0.479,0.479c0,1.127,0.917,2.043,2.043,2.043s2.042-0.916,2.043-2.043
		C27.043,31.543,26.828,31.328,26.564,31.328z"/>
</g>
</svg>
