<svg version="1.1" xmlns="http://www.w3.org/2000/svg" xmlns:xlink="http://www.w3.org/1999/xlink" x="0px" y="0px"
	 width="20px" height="20px" viewBox="0 0 20 20" enable-background="new 0 0 20 20" xml:space="preserve">
<path d="M17.5,2.688h-2.438V1.562C15.062,1.251,14.811,1,14.5,1s-0.562,0.251-0.562,0.562v1.125h-3.375V1.562
	C10.562,1.251,10.311,1,10,1S9.438,1.251,9.438,1.562v1.125H6.062V1.562C6.062,1.251,5.811,1,5.5,1S4.938,1.251,4.938,1.562v1.125
	H2.5C1.672,2.688,1,3.359,1,4.187v13.312C1,18.328,1.672,19,2.5,19h15c0.828,0,1.5-0.672,1.5-1.501V4.187
	C19,3.359,18.328,2.688,17.5,2.688z M17.875,17.499c0,0.208-0.168,0.376-0.375,0.376h-15c-0.207,0-0.375-0.168-0.375-0.376V4.187
	c0-0.206,0.168-0.374,0.375-0.374h2.438v1.125C4.938,5.249,5.189,5.5,5.5,5.5s0.562-0.251,0.562-0.562V3.812h3.375v1.125
	C9.438,5.249,9.689,5.5,10,5.5s0.562-0.251,0.562-0.562V3.812h3.375v1.125c0,0.312,0.252,0.562,0.562,0.562s0.562-0.251,0.562-0.562
	V3.812H17.5c0.207,0,0.375,0.168,0.375,0.374V17.499z"/>
<rect x="4.765" y="7.781" width="2.327" height="1.745"/>
<rect x="4.765" y="10.689" width="2.327" height="1.746"/>
<rect x="4.765" y="13.599" width="2.327" height="1.745"/>
<rect x="8.836" y="13.599" width="2.327" height="1.745"/>
<rect x="8.836" y="10.689" width="2.327" height="1.746"/>
<rect x="8.836" y="7.781" width="2.327" height="1.745"/>
<rect x="12.908" y="13.599" width="2.327" height="1.745"/>
<rect x="12.908" y="10.689" width="2.327" height="1.746"/>
<rect x="12.908" y="7.781" width="2.327" height="1.745"/>
</svg>
