<?xml version="1.0" encoding="utf-8"?>
<!-- Generator: Adobe Illustrator 16.0.0, SVG Export Plug-In . SVG Version: 6.00 Build 0)  -->
<!DOCTYPE svg PUBLIC "-//W3C//DTD SVG 1.1//EN" "http://www.w3.org/Graphics/SVG/1.1/DTD/svg11.dtd">
<svg version="1.1" id="Capa_1" xmlns="http://www.w3.org/2000/svg" xmlns:xlink="http://www.w3.org/1999/xlink" x="0px" y="0px"
	 width="20px" height="20px" viewBox="227.649 227.649 20 20" enable-background="new 227.649 227.649 20 20" xml:space="preserve">
<path d="M246.001,231.694h-10.914c-0.496,0-0.899,0.403-0.899,0.899v2.595h-4.889c-0.496,0-0.899,0.403-0.899,0.899v6.619
	c0,0.496,0.403,0.899,0.899,0.899h10.914c0.496,0,0.899-0.403,0.899-0.899v-2.595h4.889c0.495,0,0.898-0.403,0.898-0.899v-6.619
	C246.899,232.097,246.496,231.694,246.001,231.694z M240.213,235.188h-4.881l0.004-2.357l10.426,0.012v6.132l-4.65-0.006v-2.882
	C241.112,235.591,240.709,235.188,240.213,235.188z M239.976,236.336v6.132l-10.438-0.013l0.012-6.131L239.976,236.336z"/>
</svg>
