<?xml version="1.0" encoding="utf-8"?>
<!-- Generator: Adobe Illustrator 16.0.0, SVG Export Plug-In . SVG Version: 6.00 Build 0)  -->
<!DOCTYPE svg PUBLIC "-//W3C//DTD SVG 1.1//EN" "http://www.w3.org/Graphics/SVG/1.1/DTD/svg11.dtd">
<svg version="1.1" id="Layer_1" xmlns="http://www.w3.org/2000/svg" xmlns:xlink="http://www.w3.org/1999/xlink" x="0px" y="0px"
	 width="20px" height="20px" viewBox="0 0 20 20" enable-background="new 0 0 20 20" xml:space="preserve">
<path d="M2.42,18.764L10,11.174l7.579,7.59c0.328,0.326,0.881,0.314,1.188,0.004C18.924,18.609,19,18.414,19,18.17
	c0-0.242-0.076-0.43-0.236-0.592L11.172,10l7.592-7.579C18.924,2.259,19,2.071,19,1.831c0-0.244-0.076-0.439-0.232-0.596
	c-0.312-0.312-0.861-0.323-1.189,0.005L10,8.827L2.42,1.238C2.092,0.911,1.542,0.92,1.233,1.233C1.077,1.392,1,1.586,1,1.831
	c0,0.239,0.078,0.432,0.238,0.592L8.826,10l-7.588,7.578C1.076,17.74,1,17.93,1,18.17c0,0.246,0.076,0.441,0.232,0.596
	C1.543,19.078,2.098,19.086,2.42,18.764z"/>
</svg>
