<svg width="20px" height="18px" viewBox="0 0 20 18" version="1.1" xmlns="http://www.w3.org/2000/svg" xmlns:xlink="http://www.w3.org/1999/xlink">
    <path d="M19.1109483,10.7798276 L13.3513672,15.6679689 L12.2089655,12.9517241 C12.0774138,12.7762069 11.8433621,12.6950862 11.6237931,12.7681897 C11.3492241,12.859569 11.2006897,13.1562069 11.292069,13.4307759 L12.3186207,16.5156897 C12.3574138,16.6303448 12.4206897,16.7437069 12.5065517,16.839569 C12.8462069,17.2189655 13.4291379,17.2512931 13.8086207,16.9116379 L13.8756034,16.8517241 L19.7487931,11.5943966 C19.9398276,11.4236207 19.9794828,11.1335345 19.8312069,10.9161207 C19.6699138,10.679569 19.3474138,10.6185345 19.1109483,10.7798276 Z" id="Shape"></path>
    <path d="M1.03448276,15.0582759 L1.03448276,1.05051724 L14.6922414,1.05051724 L14.6922414,11.8111207 C14.6922414,12.0967241 14.9238793,12.3283621 15.2094828,12.3283621 C15.4950862,12.3283621 15.7267241,12.0967241 15.7267241,11.8111207 L15.7267241,0.533275862 C15.7267241,0.247672414 15.4950862,0.0160344828 15.2094828,0.0160344828 L0.517241379,0.0160344828 C0.231637931,0.0160344828 0,0.247672414 0,0.533275862 L0,15.5755172 C0,15.8611207 0.231637931,16.0927586 0.517241379,16.0927586 L10.3630172,16.0927586 C10.6486207,16.0927586 10.8802586,15.8611207 10.8802586,15.5755172 C10.8802586,15.2898276 10.6486207,15.0582759 10.3630172,15.0582759 L1.03448276,15.0582759 Z" id="Shape"></path>
    <path d="M12.0425862,3.26336207 L3.68405172,3.26336207 C3.39844828,3.26336207 3.16681034,3.495 3.16681034,3.78060345 C3.16681034,4.0662069 3.39844828,4.29784483 3.68405172,4.29784483 L12.0425862,4.29784483 C12.3281897,4.29784483 12.5598276,4.0662069 12.5598276,3.78060345 C12.5598276,3.495 12.3282759,3.26336207 12.0425862,3.26336207 L12.0425862,3.26336207 Z" id="Shape"></path>
    <path d="M12.0425862,5.49913793 L3.68405172,5.49913793 C3.39844828,5.49913793 3.16681034,5.73077586 3.16681034,6.01637931 C3.16681034,6.30198276 3.39844828,6.53362069 3.68405172,6.53362069 L12.0425862,6.53362069 C12.3281897,6.53362069 12.5598276,6.30198276 12.5598276,6.01637931 C12.5598276,5.73077586 12.3282759,5.49913793 12.0425862,5.49913793 L12.0425862,5.49913793 Z" id="Shape"></path>
    <path d="M12.0425862,7.73491379 L3.68405172,7.73491379 C3.39844828,7.73491379 3.16681034,7.96655172 3.16681034,8.25215517 C3.16681034,8.53775862 3.39844828,8.76939655 3.68405172,8.76939655 L12.0425862,8.76939655 C12.3281897,8.76939655 12.5598276,8.53775862 12.5598276,8.25215517 C12.5598276,7.96655172 12.3282759,7.73491379 12.0425862,7.73491379 L12.0425862,7.73491379 Z" id="Shape"></path>
    <path d="M12.5598276,10.4878448 C12.5598276,10.2022414 12.3281897,9.97060345 12.0425862,9.97060345 L3.68405172,9.97060345 C3.39844828,9.97060345 3.16681034,10.2022414 3.16681034,10.4878448 C3.16681034,10.7734483 3.39844828,11.0050862 3.68405172,11.0050862 L12.0425862,11.0050862 C12.3282759,11.0050862 12.5598276,10.7735345 12.5598276,10.4878448 L12.5598276,10.4878448 Z" id="Shape"></path>
    <path d="M3.68405172,12.0973276 C3.39844828,12.0973276 3.16681034,12.3289655 3.16681034,12.614569 C3.16681034,12.9001724 3.39844828,13.1318103 3.68405172,13.1318103 L7.86327586,13.1318103 C8.14887931,13.1318103 8.38051724,12.9001724 8.38051724,12.614569 C8.38051724,12.3289655 8.14887931,12.0973276 7.86327586,12.0973276 L3.68405172,12.0973276 L3.68405172,12.0973276 Z" id="Shape"></path>
</svg>
