<?xml version="1.0" encoding="utf-8"?>
<!-- Generator: Adobe Illustrator 16.0.0, SVG Export Plug-In . SVG Version: 6.00 Build 0)  -->
<!DOCTYPE svg PUBLIC "-//W3C//DTD SVG 1.1//EN" "http://www.w3.org/Graphics/SVG/1.1/DTD/svg11.dtd">
<svg version="1.1" id="Capa_1" xmlns="http://www.w3.org/2000/svg" xmlns:xlink="http://www.w3.org/1999/xlink" x="0px" y="0px"
	 width="20px" height="20px" viewBox="235.791 235.791 20 20" enable-background="new 235.791 235.791 20 20" xml:space="preserve">
<g>
	<path d="M245.791,236.666c-3.438,0-6.234,2.796-6.234,6.234c0,1.374,0.802,3.452,2.523,6.539c1.137,2.037,2.26,3.753,2.384,3.942
		l0.841,1.272c0.107,0.164,0.289,0.263,0.486,0.263c0.196,0,0.378-0.098,0.486-0.263l0.839-1.271
		c0.011-0.016,1.178-1.78,2.385-3.943c1.723-3.084,2.524-5.162,2.524-6.539C252.025,239.462,249.229,236.666,245.791,236.666z
		 M245.791,237.832c2.795,0,5.068,2.273,5.068,5.068c0,1.139-0.8,3.148-2.377,5.972c-1.075,1.926-2.132,3.553-2.338,3.868
		l-0.354,0.536l-0.358-0.544c-0.203-0.31-1.266-1.947-2.334-3.86c-1.577-2.826-2.376-4.835-2.376-5.972
		C240.723,240.105,242.996,237.832,245.791,237.832z"/>
	<path d="M245.791,246.374c1.937,0,3.513-1.576,3.513-3.512c0-1.937-1.576-3.513-3.513-3.513s-3.512,1.576-3.512,3.513
		C242.279,244.798,243.854,246.374,245.791,246.374z M245.791,240.515c1.294,0,2.347,1.053,2.347,2.347
		c0,1.294-1.053,2.347-2.347,2.347s-2.347-1.053-2.347-2.347C243.444,241.567,244.497,240.515,245.791,240.515z"/>
</g>
</svg>
