<svg version="1.1" xmlns="http://www.w3.org/2000/svg" xmlns:xlink="http://www.w3.org/1999/xlink" x="0px" y="0px"
	 width="20px" height="20px" viewBox="0 0 20 20" enable-background="new 0 0 20 20" xml:space="preserve">
	<path d="M12.068,13.21c0,0,2.822-2.902,2.963-3.08s0.094-0.333-0.15-0.528c-0.508-0.507-2.812-2.812-2.812-2.812
		c-0.211-0.213-0.583-0.213-0.794,0c-0.106,0.106-0.165,0.248-0.165,0.397c0,0.15,0.059,0.292,0.165,0.398l1.852,1.852H1.516
		c-0.31,0-0.562,0.252-0.562,0.562s0.252,0.562,0.562,0.562h11.61l-1.852,1.853c-0.106,0.106-0.165,0.247-0.165,0.397
		s0.059,0.292,0.165,0.397C11.484,13.422,11.857,13.424,12.068,13.21z"/>
	<path d="M18.484,1H6.609c-0.31,0-0.562,0.252-0.562,0.562V6.25c0,0.31,0.252,0.562,0.562,0.562S7.172,6.56,7.172,6.25V2.125h10.75
		v15.75H7.172V13.75c0-0.311-0.252-0.562-0.562-0.562s-0.562,0.252-0.562,0.562v4.688C6.047,18.748,6.299,19,6.609,19h11.875
		c0.311,0,0.562-0.252,0.562-0.562V1.562C19.047,1.252,18.795,1,18.484,1z"/>
</svg>