<svg version="1.1" xmlns="http://www.w3.org/2000/svg" xmlns:xlink="http://www.w3.org/1999/xlink" x="0px" y="0px"
	 width="20px" height="20px" viewBox="0 0 20 20" enable-background="new 0 0 20 20" xml:space="preserve">
			<path d="M3.174,2.003h7.123c0.277,0,0.501-0.224,0.501-0.502C10.798,1.224,10.574,1,10.297,1H3.174
				C2.297,0.999,1.587,1.713,1.587,2.586v14.827C1.587,18.289,2.301,19,3.174,19h11.351c0.877,0,1.586-0.715,1.586-1.588V10.58
				c0-0.277-0.225-0.502-0.502-0.502c-0.276,0-0.502,0.225-0.502,0.502v6.832c0,0.322-0.265,0.588-0.586,0.588H3.174
				c-0.322,0-0.587-0.266-0.587-0.588V2.59C2.587,2.268,2.853,2.003,3.174,2.003z"/>
	<path d="M15.301,1.309c-0.087-0.086-0.203-0.134-0.327-0.134c-0.127,0-0.249,0.049-0.344,0.139l-2.073,2.088l-8.311,8.296
		c-0.057,0.065-0.135,0.183-0.135,0.325l-0.016,3.024c0,0.13,0.049,0.254,0.135,0.341c0.089,0.088,0.199,0.134,0.325,0.134
		l3.007-0.016c0.127,0,0.237-0.046,0.328-0.135L18.277,4.984c0.182-0.181,0.18-0.476-0.004-0.67L15.301,1.309z M15.099,6.861
		l-7.709,7.693l-2.357,0.018l0.017-2.342l7.834-7.834l2.339,2.341L15.099,6.861z M15.891,6.069l-2.341-2.34l1.425-1.426l2.341,2.34
		L15.891,6.069z"/>
</svg>
