<?xml version="1.0" encoding="utf-8"?>
<!-- Generator: Adobe Illustrator 16.0.0, SVG Export Plug-In . SVG Version: 6.00 Build 0)  -->
<!DOCTYPE svg PUBLIC "-//W3C//DTD SVG 1.1//EN" "http://www.w3.org/Graphics/SVG/1.1/DTD/svg11.dtd">
<svg version="1.1" id="Capa_1" xmlns="http://www.w3.org/2000/svg" xmlns:xlink="http://www.w3.org/1999/xlink" x="0px" y="0px"
	 width="20px" height="20px" viewBox="0 0 20 20" enable-background="new 0 0 20 20" xml:space="preserve">
<g>
	<path d="M19.479,18.427h-0.631v-7.987h0.631c0.104,0,0.2-0.057,0.251-0.148c0.05-0.092,0.047-0.203-0.01-0.292l-2.141-3.363
		c-0.052-0.082-0.144-0.132-0.241-0.132h-5.69l-1.361-1.361V4.02h2.771c0.105,0,0.202-0.059,0.253-0.151
		c0.05-0.094,0.044-0.207-0.015-0.295L12.79,2.815l0.506-0.759c0.059-0.087,0.064-0.2,0.015-0.294
		c-0.051-0.093-0.147-0.151-0.253-0.151h-2.771V1.286C10.287,1.128,10.158,1,10,1S9.713,1.128,9.713,1.286v3.856L8.353,6.504h-5.69
		c-0.098,0-0.189,0.05-0.242,0.132L0.28,9.999c-0.056,0.089-0.06,0.2-0.009,0.292s0.146,0.148,0.251,0.148h0.631v7.987H0.522
		c-0.158,0-0.287,0.129-0.287,0.287S0.364,19,0.522,19h18.957c0.158,0,0.286-0.128,0.286-0.286S19.637,18.427,19.479,18.427z
		 M17.181,7.076l1.775,2.79H15.01l-2.789-2.79H17.181z M12.521,2.185l-0.314,0.472c-0.063,0.097-0.063,0.222,0,0.318l0.314,0.472
		h-2.235V2.185H12.521z M2.82,7.076h4.959l-2.79,2.79H1.044L2.82,7.076z M1.726,10.439h3.382c0.009,0,0.019,0,0.028-0.001
		c0.004-0.001,0.008-0.002,0.013-0.002c0.005-0.001,0.01-0.001,0.016-0.002c0.004-0.001,0.009-0.003,0.013-0.004
		c0.005-0.001,0.009-0.002,0.014-0.003c0.004-0.002,0.009-0.004,0.014-0.005c0.004-0.002,0.008-0.003,0.013-0.005
		s0.008-0.004,0.013-0.006c0.004-0.002,0.008-0.004,0.013-0.006c0.004-0.003,0.008-0.005,0.011-0.008
		c0.004-0.002,0.009-0.004,0.013-0.007s0.008-0.006,0.012-0.01c0.003-0.002,0.007-0.005,0.01-0.007
		c0.007-0.006,0.014-0.013,0.021-0.02L10,5.667l4.689,4.688c0.006,0.007,0.014,0.014,0.021,0.02
		c0.003,0.002,0.006,0.005,0.009,0.007c0.004,0.004,0.008,0.007,0.013,0.01s0.009,0.005,0.013,0.007
		c0.004,0.003,0.008,0.005,0.012,0.008c0.004,0.002,0.009,0.004,0.013,0.006s0.008,0.004,0.013,0.006s0.009,0.003,0.013,0.005
		c0.005,0.001,0.009,0.003,0.013,0.005c0.006,0.001,0.01,0.002,0.014,0.003c0.006,0.002,0.01,0.003,0.015,0.004
		c0.004,0.001,0.01,0.001,0.015,0.002c0.005,0,0.009,0.001,0.013,0.002c0.01,0.001,0.019,0.001,0.028,0.001h3.383v7.987h-6.153
		v-3.993c0-0.495-0.402-0.898-0.898-0.898H8.777c-0.495,0-0.898,0.403-0.898,0.898v3.993H1.726V10.439z M11.548,14.758H8.452v-0.324
		c0-0.18,0.146-0.325,0.325-0.325h2.446c0.179,0,0.325,0.146,0.325,0.325V14.758z M8.452,15.331h1.261v3.096H8.452V15.331z
		 M10.287,15.331h1.261v3.096h-1.261V15.331z"/>
	<path d="M10,12.58c1.169,0,2.121-0.951,2.121-2.121S11.169,8.338,10,8.338c-1.169,0-2.121,0.951-2.121,2.121S8.831,12.58,10,12.58z
		 M10,8.911c0.854,0,1.548,0.694,1.548,1.548S10.854,12.006,10,12.006s-1.548-0.693-1.548-1.547S9.146,8.911,10,8.911z"/>
	<path d="M10,10.746c0.158,0,0.287-0.129,0.287-0.287V9.542c0-0.159-0.128-0.287-0.287-0.287S9.713,9.383,9.713,9.542v0.63H9.083
		c-0.158,0-0.287,0.129-0.287,0.287s0.128,0.287,0.287,0.287H10z"/>
</g>
</svg>
