<?xml version="1.0" encoding="utf-8"?>
<!-- Generator: Adobe Illustrator 16.0.0, SVG Export Plug-In . SVG Version: 6.00 Build 0)  -->
<!DOCTYPE svg PUBLIC "-//W3C//DTD SVG 1.1//EN" "http://www.w3.org/Graphics/SVG/1.1/DTD/svg11.dtd">
<svg version="1.1" xmlns="http://www.w3.org/2000/svg" xmlns:xlink="http://www.w3.org/1999/xlink" x="0px" y="0px" width="20px"
	 height="20px" viewBox="209.265 209.265 20 20" enable-background="new 209.265 209.265 20 20" xml:space="preserve">
<g id="Capa_1" display="none">
	<g display="inline">
		<path d="M228.043,217.988c-0.148-0.148-0.324-0.223-0.527-0.223h-1.676c-0.29-1.258-0.894-2.346-1.811-3.264
			c-0.918-0.918-2.006-1.521-3.264-1.811v-1.676c0-0.203-0.075-0.379-0.223-0.527c-0.148-0.148-0.324-0.223-0.527-0.223h-1.5
			c-0.203,0-0.379,0.074-0.527,0.223s-0.223,0.324-0.223,0.527v1.676c-1.258,0.289-2.346,0.893-3.264,1.811
			s-1.521,2.006-1.811,3.264h-1.676c-0.203,0-0.379,0.074-0.527,0.223s-0.223,0.324-0.223,0.527v1.5
			c0,0.203,0.074,0.379,0.223,0.527c0.148,0.147,0.324,0.223,0.527,0.223h1.676c0.289,1.258,0.893,2.346,1.811,3.264
			s2.006,1.521,3.264,1.811v1.676c0,0.203,0.074,0.379,0.223,0.527s0.324,0.222,0.527,0.222h1.5c0.203,0,0.379-0.073,0.527-0.222
			c0.147-0.148,0.223-0.324,0.223-0.527v-1.676c1.258-0.29,2.346-0.893,3.264-1.811s1.521-2.006,1.811-3.264h1.676
			c0.203,0,0.379-0.075,0.527-0.223c0.148-0.148,0.222-0.324,0.222-0.527v-1.5C228.265,218.312,228.191,218.136,228.043,217.988z
			 M222.487,220.543c0.149,0.147,0.325,0.223,0.527,0.223h1.278c-0.25,0.844-0.689,1.58-1.318,2.209
			c-0.629,0.628-1.365,1.068-2.209,1.318v-1.277c0-0.203-0.075-0.379-0.223-0.527c-0.148-0.148-0.324-0.223-0.527-0.223h-1.5
			c-0.203,0-0.379,0.074-0.527,0.223s-0.223,0.324-0.223,0.527v1.277c-0.844-0.25-1.58-0.69-2.209-1.318
			c-0.629-0.629-1.068-1.365-1.318-2.209h1.277c0.203,0,0.379-0.075,0.527-0.223c0.148-0.148,0.223-0.324,0.223-0.527v-1.5
			c0-0.203-0.074-0.379-0.223-0.527s-0.324-0.223-0.527-0.223h-1.277c0.25-0.844,0.689-1.58,1.318-2.209s1.365-1.068,2.209-1.318
			v1.277c0,0.203,0.074,0.379,0.223,0.527s0.324,0.223,0.527,0.223h1.5c0.203,0,0.379-0.074,0.527-0.223
			c0.147-0.148,0.223-0.324,0.223-0.527v-1.277c0.844,0.25,1.58,0.689,2.209,1.318s1.068,1.365,1.318,2.209h-1.278
			c-0.202,0-0.378,0.074-0.527,0.223c-0.147,0.148-0.222,0.324-0.222,0.527v1.5C222.266,220.219,222.34,220.395,222.487,220.543z"/>
	</g>
</g>
<g id="Layer_2">
	<path d="M228.265,218.224h-3.148c-0.44-2.479-2.416-4.426-4.91-4.826v-3.133h-1.799v3.121c-2.532,0.368-4.549,2.333-4.994,4.838
		h-3.149v1.801h3.106c0.338,2.64,2.41,4.737,5.037,5.12v3.12h1.799v-3.134c2.586-0.414,4.618-2.496,4.953-5.106h3.105V218.224z
		 M220.206,223.993v-2.844h-1.799v2.853c-2.003-0.363-3.567-1.962-3.889-3.978h2.778v-1.801h-2.735
		c0.417-1.884,1.936-3.35,3.846-3.696v2.796h1.799v-2.788c1.872,0.373,3.352,1.831,3.762,3.687h-2.707v1.801h2.751
		C223.693,222.014,222.171,223.602,220.206,223.993z"/>
</g>
</svg>
