<svg version="1.1" id="Layer_1" xmlns="http://www.w3.org/2000/svg" xmlns:xlink="http://www.w3.org/1999/xlink" x="0px" y="0px"
	 width="20px" height="20px" viewBox="15 15 20 20" enable-background="new 15 15 20 20" xml:space="preserve">
<path d="M28.386,27.676l0.169-0.234c0.923-1.273,1.376-2.781,1.312-4.36c-0.075-1.861-0.871-3.582-2.242-4.845
	c-1.289-1.189-2.972-1.844-4.737-1.844c-0.705,0-1.403,0.106-2.074,0.315c-1.163,0.363-2.215,1.03-3.044,1.93
	c-1.262,1.37-1.916,3.149-1.841,5.011c0.076,1.861,0.872,3.582,2.242,4.844c1.291,1.189,2.973,1.846,4.739,1.846
	c0.705,0,1.402-0.105,2.073-0.316c0.896-0.279,1.718-0.734,2.44-1.348l0.22-0.188l5.555,5.121l0.747-0.811L28.386,27.676z
	 M27.216,27.346c-0.699,0.758-1.586,1.32-2.563,1.625c-0.565,0.176-1.152,0.266-1.746,0.266c-1.486,0-2.902-0.551-3.989-1.553
	c-1.154-1.064-1.824-2.513-1.888-4.08c-0.064-1.567,0.486-3.065,1.549-4.22c0.699-0.758,1.585-1.32,2.562-1.625
	c1.982-0.619,4.217-0.115,5.737,1.288c1.152,1.063,1.823,2.512,1.888,4.079C28.829,24.694,28.278,26.193,27.216,27.346z"/>
</svg>
