<svg width="17px" height="18px" viewBox="0 0 17 18" version="1.1" xmlns="http://www.w3.org/2000/svg" xmlns:xlink="http://www.w3.org/1999/xlink">
    <path d="M13.9887723,6.54508929 L13.9887723,5.88334821 C13.9887723,4.29950893 13.4282812,2.82776786 12.4121652,1.73571429 C11.3707366,0.614732143 9.93877232,0 8.37662946,0 L7.83060268,0 C6.26845982,0 4.83649554,0.614732143 3.79506696,1.73571429 C2.77895089,2.82776786 2.21845982,4.29950893 2.21845982,5.88334821 L2.21845982,6.54508929 C0.985379464,6.62825893 0.00542410714,7.65522321 0.00542410714,8.91 L0.00542410714,9.94419643 C0.00542410714,11.2495982 1.06854911,12.3127232 2.37395089,12.3127232 L3.70828125,12.3127232 C3.94694196,12.3127232 4.14220982,12.1174554 4.14220982,11.8787946 L4.14220982,6.97178571 C4.14220982,6.733125 3.94694196,6.53785714 3.70828125,6.53785714 L3.08631696,6.53785714 L3.08631696,5.88334821 C3.08631696,3.02303571 5.12578125,0.867857143 7.82698661,0.867857143 L8.37301339,0.867857143 C11.0778348,0.867857143 13.113683,3.02303571 13.113683,5.88334821 L13.113683,6.53785714 L12.4917187,6.53785714 C12.253058,6.53785714 12.0577902,6.733125 12.0577902,6.97178571 L12.0577902,11.8751786 C12.0577902,12.1138393 12.253058,12.3091071 12.4917187,12.3091071 L13.0992187,12.3091071 C12.9220312,14.5727679 11.3635045,15.0970982 10.6402902,15.2164286 C10.4414062,14.6053125 9.86645089,14.1641518 9.19024554,14.1641518 L8.10542411,14.1641518 C7.26649554,14.1641518 6.58305804,14.8475893 6.58305804,15.6865179 C6.58305804,16.5254464 7.26649554,17.2125 8.10542411,17.2125 L9.19386161,17.2125 C9.89537946,17.2125 10.4847991,16.7351786 10.6619866,16.0915179 C11.0163616,16.0408929 11.5768527,15.9143304 12.1337277,15.5888839 C12.9184152,15.1296429 13.8477455,14.1930804 13.970692,12.3054911 C15.2110045,12.2295536 16.1945759,11.1989732 16.1945759,9.94058036 L16.1945759,8.90638393 C16.198192,7.65522321 15.2218527,6.62464286 13.9887723,6.54508929 L13.9887723,6.54508929 Z M3.28158482,11.44125 L2.38118304,11.44125 C1.55310268,11.44125 0.880513393,10.7686607 0.880513393,9.94058036 L0.880513393,8.90638393 C0.880513393,8.07830357 1.55310268,7.40571429 2.38118304,7.40571429 L3.28158482,7.40571429 L3.28158482,11.44125 L3.28158482,11.44125 Z M9.19386161,16.3446429 L8.10542411,16.3446429 C7.74381696,16.3446429 7.45091518,16.0517411 7.45091518,15.6901339 C7.45091518,15.3285268 7.74381696,15.035625 8.10542411,15.035625 L9.19386161,15.035625 C9.55546875,15.035625 9.84837054,15.3285268 9.84837054,15.6901339 C9.84837054,16.0517411 9.55546875,16.3446429 9.19386161,16.3446429 L9.19386161,16.3446429 Z M15.3303348,9.94058036 C15.3303348,10.7686607 14.6577455,11.44125 13.8296652,11.44125 L12.9292634,11.44125 L12.9292634,7.40571429 L13.8296652,7.40571429 C14.6577455,7.40571429 15.3303348,8.07830357 15.3303348,8.90638393 L15.3303348,9.94058036 L15.3303348,9.94058036 Z" id="Shape"></path>
</svg>
