<svg version="1.1" xmlns="http://www.w3.org/2000/svg" xmlns:xlink="http://www.w3.org/1999/xlink" x="0px" y="0px"
	 width="20px" height="20px" viewBox="0 0 20 20" enable-background="new 0 0 20 20" xml:space="preserve">
<path d="M1,10.426c0,0.138,0.054,0.267,0.152,0.363l5.394,5.316c0.196,0.195,0.549,0.193,0.743,0L18.848,4.625
	C18.946,4.527,19,4.397,19,4.26s-0.054-0.267-0.152-0.364c-0.198-0.196-0.544-0.196-0.742,0L6.916,15.012l-5.021-4.95
	c-0.1-0.099-0.231-0.153-0.372-0.153c-0.141,0-0.272,0.054-0.371,0.152C1.054,10.159,1,10.288,1,10.426z"/>
</svg>
