<?xml version="1.0" encoding="utf-8"?>
<!-- Generator: Adobe Illustrator 16.0.0, SVG Export Plug-In . SVG Version: 6.00 Build 0)  -->
<!DOCTYPE svg PUBLIC "-//W3C//DTD SVG 1.1//EN" "http://www.w3.org/Graphics/SVG/1.1/DTD/svg11.dtd">
<svg version="1.1" id="Layer_1" xmlns="http://www.w3.org/2000/svg" xmlns:xlink="http://www.w3.org/1999/xlink" x="0px" y="0px"
	 width="20px" height="20px" viewBox="0 0 20 20" enable-background="new 0 0 20 20" xml:space="preserve">
<g>
	<rect x="6.3" y="6.674" fill="#030104" width="1.401" height="9.277"/>
	<rect x="12.301" y="6.674" fill="#030104" width="1.399" height="9.277"/>
	<rect x="9.301" y="6.674" fill="#030104" width="1.4" height="9.277"/>
	<path fill="#030104" d="M6.676,3.3h-4.5v1.401h15.648V3.3h-4.5V2.5c0-0.8-0.648-1.451-1.446-1.451H8.126
		c-0.799,0-1.45,0.651-1.45,1.451V3.3z M8.076,2.451h3.852V3.3H8.076V2.451z"/>
	<path fill="#030104" d="M16.701,5.55h-1.4v12.001h-10.6V5.55h-1.4v11.951c0,0.799,0.651,1.449,1.45,1.449h10.5
		c0.8,0,1.45-0.65,1.45-1.449V5.55z"/>
</g>
</svg>
