<svg width="20px" height="15px" viewBox="0 0 20 15" version="1.1" xmlns="http://www.w3.org/2000/svg" xmlns:xlink="http://www.w3.org/1999/xlink">
    <path d="M19.4938776,11.8632653 C18.3714286,10.9408163 17.1632653,10.2795918 16.677551,10.0306122 L16.677551,8.44285714 C16.9387755,8.19387755 17.0897959,7.85102041 17.0897959,7.48367347 L17.0897959,5.43877551 C17.0897959,4.19795918 16.0816327,3.18979592 14.8408163,3.18979592 L14.4,3.18979592 C13.1591837,3.18979592 12.1510204,4.19795918 12.1510204,5.43877551 L12.1510204,7.48367347 C12.1510204,7.85102041 12.3020408,8.19387755 12.5632653,8.44285714 L12.5632653,9.86326531 C12.5632653,10.0877551 12.7428571,10.2673469 12.9673469,10.2673469 C13.1918367,10.2673469 13.3714286,10.0877551 13.3714286,9.86326531 L13.3714286,8.25102041 C13.3714286,8.11632653 13.3020408,7.98979592 13.1918367,7.91632653 C13.044898,7.81836735 12.9591837,7.65918367 12.9591837,7.48367347 L12.9591837,5.43877551 C12.9591837,4.64693878 13.6040816,3.99795918 14.4,3.99795918 L14.8408163,3.99795918 C15.6326531,3.99795918 16.2816327,4.64285714 16.2816327,5.43877551 L16.2816327,7.48367347 C16.2816327,7.65918367 16.1959184,7.81836735 16.0489796,7.91632653 C15.9346939,7.98979592 15.8693878,8.11632653 15.8693878,8.25102041 L15.8693878,10.2265306 C15.8693878,10.4142857 15.9795918,10.5897959 16.1469388,10.6714286 C16.4040816,10.7979592 17.7428571,11.4755102 18.9795918,12.4877551 C19.1142857,12.5979592 19.1918367,12.7653061 19.1918367,12.9408163 L19.1918367,14.344898 C19.1918367,14.5693878 19.3714286,14.7489796 19.5959184,14.7489796 C19.8204082,14.7489796 20,14.5693878 20,14.344898 L20,12.9408163 C20,12.5204082 19.8163265,12.1285714 19.4938776,11.8632653 L19.4938776,11.8632653 Z" id="Shape" fill="#777"></path>
    <path d="M7.12653061,0.0265306122 L6.55510204,0.0265306122 C5.01632653,0.0265306122 3.76326531,1.27959184 3.76326531,2.81836735 L3.76326531,5.46734694 C3.76326531,5.9244898 3.95918367,6.35714286 4.29795918,6.65918367 L4.29795918,8.83877551 C3.72244898,9.13265306 2.11020408,9.99387755 0.608163265,11.2265306 C0.224489796,11.544898 -9.4255669e-16,12.0183673 -9.4255669e-16,12.5285714 L-9.4255669e-16,14.344898 C-9.4255669e-16,14.5693878 0.179591837,14.7489796 0.404081633,14.7489796 L13.2857143,14.7489796 C13.5102041,14.7489796 13.6897959,14.5693878 13.6897959,14.344898 L13.6897959,12.5285714 C13.6897959,12.022449 13.4653061,11.544898 13.0734694,11.2265306 C11.5714286,9.99387755 9.95918367,9.12857143 9.38367347,8.83877551 L9.38367347,6.65918367 C9.72244898,6.35714286 9.91836735,5.92857143 9.91836735,5.46734694 L9.91836735,2.81428571 C9.91836735,1.2755102 8.66530612,0.0265306122 7.12653061,0.0265306122 L7.12653061,0.0265306122 Z M8.86938776,9.47959184 C9.20408163,9.64285714 10.9510204,10.5244898 12.5591837,11.8469388 C12.7632653,12.0142857 12.877551,12.2632653 12.877551,12.5244898 L12.877551,13.9367347 L0.808163265,13.9367347 L0.808163265,12.5285714 C0.808163265,12.2632653 0.926530612,12.0142857 1.12653061,11.8510204 C2.73877551,10.5285714 4.48163265,9.64693878 4.81632653,9.48367347 C4.99591837,9.39387755 5.11020408,9.21428571 5.11020408,9.01428571 L5.11020408,6.45918367 C5.11020408,6.3244898 5.04081633,6.19795918 4.93061224,6.1244898 C4.71020408,5.97755102 4.5755102,5.73265306 4.5755102,5.46734694 L4.5755102,2.81428571 C4.5755102,1.72040816 5.46530612,0.830612245 6.55918367,0.830612245 L7.13061224,0.830612245 C8.2244898,0.830612245 9.11428571,1.72040816 9.11428571,2.81428571 L9.11428571,5.46326531 C9.11428571,5.72857143 8.98367347,5.97346939 8.75918367,6.12040816 C8.64489796,6.19387755 8.57959184,6.32040816 8.57959184,6.45510204 L8.57959184,9.01020408 C8.5755102,9.21020408 8.68979592,9.39387755 8.86938776,9.47959184 L8.86938776,9.47959184 Z"></path>
</svg>
